<?xml version="1.0" encoding="utf-8"?>
<!-- Generator: Adobe Illustrator 22.0.0, SVG Export Plug-In . SVG Version: 6.00 Build 0)  -->
<svg version="1.1" id="Capa_1" xmlns="http://www.w3.org/2000/svg" xmlns:xlink="http://www.w3.org/1999/xlink" x="0px" y="0px"
	 viewBox="0 0 448 450" style="enable-background:new 0 0 448 450;" xml:space="preserve">
<style type="text/css">
	.st0{fill:#7BBB2F;}
</style>
<path class="st0" d="M224.1,110.3c-63.6,0-114.9,51.3-114.9,114.9s51.3,114.9,114.9,114.9S339,288.8,339,225.2
	S287.7,110.3,224.1,110.3z M224.1,299.9c-41.1,0-74.7-33.5-74.7-74.7s33.5-74.7,74.7-74.7s74.7,33.5,74.7,74.7
	S265.2,299.9,224.1,299.9L224.1,299.9z M370.5,105.6c0,14.9-12,26.8-26.8,26.8c-14.9,0-26.8-12-26.8-26.8s12-26.8,26.8-26.8
	S370.5,90.8,370.5,105.6z M446.6,132.8c-1.7-35.9-9.9-67.7-36.2-93.9c-26.2-26.2-58-34.4-93.9-36.2c-37-2.1-147.9-2.1-184.9,0
	C95.8,4.4,64,12.6,37.7,38.8s-34.4,58-36.2,93.9c-2.1,37-2.1,147.9,0,184.9c1.7,35.9,9.9,67.7,36.2,93.9s58,34.4,93.9,36.2
	c37,2.1,147.9,2.1,184.9,0c35.9-1.7,67.7-9.9,93.9-36.2c26.2-26.2,34.4-58,36.2-93.9C448.7,280.6,448.7,169.8,446.6,132.8
	L446.6,132.8z M398.8,357.3c-7.8,19.6-22.9,34.7-42.6,42.6c-29.5,11.7-99.5,9-132.1,9s-102.7,2.6-132.1-9
	c-19.6-7.8-34.7-22.9-42.6-42.6c-11.7-29.5-9-99.5-9-132.1s-2.6-102.7,9-132.1C57.2,73.5,72.3,58.4,92,50.5
	c29.5-11.7,99.5-9,132.1-9s102.7-2.6,132.1,9c19.6,7.8,34.7,22.9,42.6,42.6c11.7,29.5,9,99.5,9,132.1S410.5,327.9,398.8,357.3z"/>
</svg>
